<svg width="22" height="22" viewBox="0 0 22 22" fill="none" xmlns="http://www.w3.org/2000/svg">
<foreignObject x="0" y="0" width="0" height="0"><div xmlns="http://www.w3.org/1999/xhtml" style="backdrop-filter:blur(7.78px);clip-path:url(#bgblur_0_762_40656_clip_path);height:100%;width:100%"></div></foreignObject><path data-figma-bg-blur-radius="15.5543" d="M11 22C17.0751 22 22 17.0751 22 11C22 4.92487 17.0751 0 11 0C4.92487 0 0 4.92487 0 11C0 17.0751 4.92487 22 11 22Z" fill="#3482FF"/>
<path d="M7.06958 11.1512L9.39036 13.8674C9.59664 14.1088 9.97279 14.0993 10.1666 13.8477L14.9303 7.66427" stroke="white" stroke-width="2" stroke-linecap="round"/>
<defs>
<clipPath id="bgblur_0_762_40656_clip_path" transform="translate(0 0)"><path d="M11 22C17.0751 22 22 17.0751 22 11C22 4.92487 17.0751 0 11 0C4.92487 0 0 4.92487 0 11C0 17.0751 4.92487 22 11 22Z"/>
</clipPath></defs>
</svg>
