<svg width="18" height="18" viewBox="0 0 18 18" fill="none" xmlns="http://www.w3.org/2000/svg">
<path d="M10.1853 2.11094C10.045 2.14338 9.91655 2.21674 9.81493 2.32242C9.71332 2.4281 9.64279 2.56173 9.61161 2.70763L9.40551 3.67284C9.12351 4.99135 8.48598 6.19893 7.56766 7.15405C6.64934 8.10916 5.48828 8.77223 4.22057 9.06553L3.29254 9.27988C3.12417 9.31821 2.97346 9.41525 2.8654 9.55489C2.75734 9.69454 2.69843 9.86841 2.69843 10.0477C2.69843 10.2269 2.75734 10.4008 2.8654 10.5404C2.97346 10.6801 3.12417 10.7771 3.29254 10.8155L4.21936 11.0273C5.48739 11.3208 6.64867 11.9842 7.56702 12.9398C8.48537 13.8954 9.12271 15.1035 9.40431 16.4225L9.61161 17.3877C9.64948 17.5616 9.74306 17.7169 9.87698 17.8281C10.0109 17.9394 10.1772 18 10.3486 18C10.52 18 10.6863 17.9394 10.8202 17.8281C10.9542 17.7169 11.0477 17.5616 11.0856 17.3877L11.2941 16.4212C11.5766 15.1038 12.214 13.8972 13.1318 12.9428C14.0496 11.9885 15.2098 11.3258 16.4767 11.0323L17.4059 10.8192C17.5743 10.7809 17.725 10.6839 17.833 10.5442C17.9411 10.4046 18 10.2307 18 10.0514C18 9.87218 17.9411 9.6983 17.833 9.55865C17.725 9.41901 17.5743 9.32197 17.4059 9.28364L16.4779 9.06804C15.2102 8.77443 14.0493 8.11108 13.1312 7.15574C12.2131 6.20041 11.5758 4.99267 11.2941 3.6741L11.0856 2.70888C11.0421 2.5057 10.9229 2.32876 10.7541 2.2169C10.5853 2.10504 10.3807 2.06738 10.1853 2.1122V2.11094ZM3.13775 0.00125353C2.62312 -0.0338453 2.86537 1.25604 2.06871 2.0583C1.27204 2.86181 0.0318508 2.58353 0.000514984 3.1614C-0.0296154 3.73928 1.26602 3.64025 1.93974 4.39362C2.61468 5.15076 2.46764 6.27392 3.02084 6.3015C3.57164 6.32907 3.26551 5.15953 4.14172 4.37106C5.01913 3.58134 6.06166 3.80196 6.06166 3.24038C6.06166 2.67754 4.9191 3.00722 4.15377 2.15356C3.38242 1.30492 3.65239 0.0350988 3.13775 0V0.00125353Z" fill="url(#paint0_linear_368_25055)"/>
<defs>
<linearGradient id="paint0_linear_368_25055" x1="16.1152" y1="17.4081" x2="-2.66587" y2="2.73474" gradientUnits="userSpaceOnUse">
<stop stop-color="#5882FE"/>
<stop offset="1" stop-color="#70CEFF"/>
</linearGradient>
</defs>
</svg>
