<svg width="68" height="68" viewBox="0 0 68 68" fill="none" xmlns="http://www.w3.org/2000/svg">
<path d="M34.7301 42.5569L41.7122 49.539L36.8005 54.5266C35.8223 55.5188 35.331 56.0153 34.7656 56.201C34.268 56.3639 33.7285 56.3626 33.2312 56.1986C32.6665 56.0118 32.1768 55.5156 31.2011 54.5219L26.0309 49.2568C25.4768 48.6926 25.199 48.4088 25.0727 48.0093C24.9764 47.7026 24.981 47.2349 25.0822 46.9302C25.2144 46.534 25.4384 46.3106 25.8862 45.8677C27.97 43.8076 30.836 42.5334 33.9972 42.5332C34.2431 42.5332 34.488 42.5417 34.7301 42.5569ZM13.9995 11.0851C14.243 11.0062 14.5054 11.0061 14.7489 11.0851C15.0261 11.1752 15.2668 11.4157 15.7474 11.8962L54.1064 50.2553C54.5869 50.7357 54.8273 50.9768 54.9175 51.2537C54.9968 51.4976 54.9968 51.7617 54.9175 52.0056C54.8272 52.2825 54.5868 52.5236 54.1064 53.004L53.421 53.6894C52.9402 54.1703 52.6974 54.4128 52.4202 54.5029C52.1768 54.5817 51.9141 54.5819 51.6708 54.5029C51.3935 54.4128 51.1532 54.1703 50.6723 53.6894L12.3132 15.3304C11.8327 14.8498 11.5922 14.6091 11.5021 14.3319C11.4231 14.0883 11.423 13.8261 11.5021 13.5825C11.5922 13.3053 11.8325 13.0648 12.3132 12.584L13.001 11.8962C13.4814 11.4158 13.7224 11.1752 13.9995 11.0851ZM28.3029 36.1297C25.7291 36.9471 23.3942 38.3021 21.4322 40.0643C20.4919 40.909 20.0199 41.3317 19.6274 41.4422C19.2438 41.5499 18.953 41.5407 18.5768 41.409C18.1919 41.2743 17.8087 40.8851 17.0447 40.107L16.3498 39.3979C15.7236 38.7601 15.4107 38.4399 15.2849 38.0365C15.1819 37.7047 15.1868 37.279 15.2992 36.9503C15.4361 36.5512 15.7268 36.2693 16.3071 35.71C18.3048 33.7846 20.6166 32.1792 23.1564 30.9833L28.3029 36.1297ZM37.4693 28.8085C42.9752 29.5595 47.9215 32.0675 51.7253 35.7503C52.3046 36.3112 52.5948 36.5935 52.7309 36.993C52.8424 37.3218 52.8488 37.7478 52.7451 38.0792C52.6185 38.4823 52.3028 38.8019 51.6755 39.4382L50.9782 40.1449C50.4805 40.6498 50.1388 40.9845 49.8588 41.198L37.4693 28.8085ZM33.9972 14.6047C44.6766 14.605 54.3656 18.8501 61.4704 25.7419C62.0909 26.3438 62.4018 26.647 62.5376 27.0463C62.6516 27.3824 62.6555 27.7937 62.5495 28.1325C62.4229 28.5353 62.0978 28.8667 61.4491 29.5247L60.7115 30.2718C59.9786 31.0151 59.6116 31.388 59.2197 31.5216C58.8542 31.6458 58.522 31.6517 58.1525 31.5406C57.7558 31.4211 57.3428 31.0303 56.5184 30.2504C50.6454 24.6947 42.7196 21.2836 33.9972 21.2832C32.702 21.2833 31.423 21.36 30.167 21.5062L24.4324 15.7715C27.4946 15.009 30.699 14.6047 33.9972 14.6047ZM17.7586 25.5854C15.4992 26.8765 13.4075 28.4287 11.5259 30.2006C10.6998 30.9786 10.2839 31.3672 9.88705 31.4861C9.51726 31.5964 9.18506 31.5896 8.81981 31.4647C8.42813 31.3303 8.06191 30.9576 7.33042 30.2125L6.5952 29.4654C5.94775 28.8059 5.6253 28.474 5.4995 28.0709C5.39393 27.7317 5.39896 27.3208 5.51373 26.9847C5.65044 26.5856 5.96167 26.2832 6.58335 25.6826C8.50787 23.8238 10.6219 22.1585 12.8919 20.7188L17.7586 25.5854Z" fill="black" fill-opacity="0.2"/>
</svg>
