<svg width="68" height="68" viewBox="0 0 68 68" fill="none" xmlns="http://www.w3.org/2000/svg">
<path fill-rule="evenodd" clip-rule="evenodd" d="M9.47917 16.6333C8.55273 18.4516 8.55273 20.8318 8.55273 25.5922V25.6993L58.8141 25.6993C59.0373 25.6993 59.23 25.6993 59.3985 25.7025C59.3178 23.6714 59.1011 22.31 58.5201 21.1696C57.7052 19.5702 56.4048 18.2699 54.8054 17.4549C52.9872 16.5285 50.607 16.5285 45.8465 16.5285H35.9933C35.0837 16.5285 34.629 16.5285 34.1969 16.4497C33.5049 16.3235 32.8486 16.0485 32.2733 15.6438C31.9141 15.3911 31.5951 15.0669 30.9572 14.4186L30.9572 14.4186C30.2236 13.673 29.8568 13.3002 29.4437 13.0096C28.7821 12.5441 28.0273 12.2279 27.2315 12.0828C26.7346 11.9922 26.2116 11.9922 25.1656 11.9922L22.1526 11.9922C17.3922 11.9922 15.012 11.9922 13.1938 12.9187C11.5944 13.7336 10.2941 15.034 9.47917 16.6333ZM59.4461 29.0993L8.55273 29.0993V42.4074C8.55273 47.1679 8.55273 49.5481 9.47918 51.3663C10.2941 52.9657 11.5944 54.266 13.1938 55.081C15.0121 56.0074 17.3923 56.0074 22.1527 56.0074H45.8465C50.607 56.0074 52.9872 56.0074 54.8054 55.081C56.4048 54.266 57.7052 52.9657 58.5201 51.3663C59.4465 49.5481 59.4465 47.1679 59.4465 42.4074V30.1285C59.4465 29.7723 59.4465 29.4295 59.4461 29.0993Z" fill="black" fill-opacity="0.2"/>
</svg>
